<?xml version="1.0" encoding="UTF-8" standalone="no"?>
<!DOCTYPE svg PUBLIC "-//W3C//DTD SVG 1.1//EN"
 "http://www.w3.org/Graphics/SVG/1.1/DTD/svg11.dtd">
<!-- Generated by graphviz version 2.42.4 (0)
 -->
<!-- Title: 12 Pages: 1 -->
<svg width="638pt" height="440pt"
 viewBox="0.00 0.00 638.00 439.60" xmlns="http://www.w3.org/2000/svg" xmlns:xlink="http://www.w3.org/1999/xlink">
<g id="graph0" class="graph" transform="scale(1 1) rotate(0) translate(4 435.6)">
<title>12</title>
<polygon fill="white" stroke="transparent" points="-4,4 -4,-435.6 634,-435.6 634,4 -4,4"/>
<g id="clust1" class="cluster">
<title>cluster0</title>
<polygon fill="none" stroke="black" points="8,-8 8,-423.6 28,-423.6 28,-8 8,-8"/>
</g>
<g id="clust2" class="cluster">
<title>cluster1</title>
<polygon fill="none" stroke="black" points="36,-87.2 36,-423.6 78,-423.6 78,-87.2 36,-87.2"/>
</g>
<g id="clust3" class="cluster">
<title>cluster2</title>
<polygon fill="none" stroke="black" points="86,-126.8 86,-423.6 128,-423.6 128,-126.8 86,-126.8"/>
</g>
<g id="clust4" class="cluster">
<title>cluster3</title>
<polygon fill="none" stroke="black" points="136,-166.4 136,-423.6 178,-423.6 178,-166.4 136,-166.4"/>
</g>
<g id="clust5" class="cluster">
<title>cluster4</title>
<polygon fill="none" stroke="black" points="186,-245.6 186,-423.6 250,-423.6 250,-245.6 186,-245.6"/>
</g>
<g id="clust6" class="cluster">
<title>cluster5</title>
<polygon fill="none" stroke="black" points="258,-245.6 258,-423.6 300,-423.6 300,-245.6 258,-245.6"/>
</g>
<g id="clust7" class="cluster">
<title>cluster6</title>
<polygon fill="none" stroke="black" points="308,-206 308,-423.6 350,-423.6 350,-206 308,-206"/>
</g>
<g id="clust8" class="cluster">
<title>cluster7</title>
<polygon fill="none" stroke="black" points="358,-285.2 358,-423.6 400,-423.6 400,-285.2 358,-285.2"/>
</g>
<g id="clust9" class="cluster">
<title>cluster8</title>
<polygon fill="none" stroke="black" points="408,-324.8 408,-423.6 450,-423.6 450,-324.8 408,-324.8"/>
</g>
<g id="clust10" class="cluster">
<title>cluster9</title>
<polygon fill="none" stroke="black" points="458,-245.6 458,-423.6 500,-423.6 500,-245.6 458,-245.6"/>
</g>
<g id="clust11" class="cluster">
<title>cluster10</title>
<polygon fill="none" stroke="black" points="508,-324.8 508,-423.6 550,-423.6 550,-324.8 508,-324.8"/>
</g>
<g id="clust12" class="cluster">
<title>cluster11</title>
<polygon fill="none" stroke="black" points="558,-364.4 558,-423.6 622,-423.6 622,-364.4 558,-364.4"/>
</g>
<!-- 1 -->
<g id="node1" class="node">
<title>1</title>
<ellipse fill="black" stroke="black" cx="18" cy="-413.8" rx="1.8" ry="1.8"/>
</g>
<!-- 2 -->
<g id="node2" class="node">
<title>2</title>
<ellipse fill="black" stroke="black" cx="18" cy="-374.2" rx="1.8" ry="1.8"/>
</g>
<!-- 1&#45;&#45;2 -->
<g id="edge1" class="edge">
<title>1&#45;&#45;2</title>
<path fill="none" stroke="black" d="M18,-411.87C18,-406.8 18,-382.53 18,-376.54"/>
</g>
<!-- 3 -->
<g id="node3" class="node">
<title>3</title>
<ellipse fill="black" stroke="black" cx="18" cy="-334.6" rx="1.8" ry="1.8"/>
</g>
<!-- 2&#45;&#45;3 -->
<g id="edge2" class="edge">
<title>2&#45;&#45;3</title>
<path fill="none" stroke="black" d="M18,-372.27C18,-367.2 18,-342.93 18,-336.94"/>
</g>
<!-- 4 -->
<g id="node4" class="node">
<title>4</title>
<ellipse fill="black" stroke="black" cx="18" cy="-295" rx="1.8" ry="1.8"/>
</g>
<!-- 3&#45;&#45;4 -->
<g id="edge3" class="edge">
<title>3&#45;&#45;4</title>
<path fill="none" stroke="black" d="M18,-332.67C18,-327.6 18,-303.33 18,-297.34"/>
</g>
<!-- 5 -->
<g id="node5" class="node">
<title>5</title>
<ellipse fill="black" stroke="black" cx="18" cy="-255.4" rx="1.8" ry="1.8"/>
</g>
<!-- 4&#45;&#45;5 -->
<g id="edge4" class="edge">
<title>4&#45;&#45;5</title>
<path fill="none" stroke="black" d="M18,-293.07C18,-288 18,-263.73 18,-257.74"/>
</g>
<!-- 6 -->
<g id="node6" class="node">
<title>6</title>
<ellipse fill="black" stroke="black" cx="18" cy="-215.8" rx="1.8" ry="1.8"/>
</g>
<!-- 5&#45;&#45;6 -->
<g id="edge5" class="edge">
<title>5&#45;&#45;6</title>
<path fill="none" stroke="black" d="M18,-253.47C18,-248.4 18,-224.13 18,-218.14"/>
</g>
<!-- 7 -->
<g id="node7" class="node">
<title>7</title>
<ellipse fill="black" stroke="black" cx="18" cy="-176.2" rx="1.8" ry="1.8"/>
</g>
<!-- 6&#45;&#45;7 -->
<g id="edge6" class="edge">
<title>6&#45;&#45;7</title>
<path fill="none" stroke="black" d="M18,-213.87C18,-208.8 18,-184.53 18,-178.54"/>
</g>
<!-- 8 -->
<g id="node8" class="node">
<title>8</title>
<ellipse fill="black" stroke="black" cx="18" cy="-136.6" rx="1.8" ry="1.8"/>
</g>
<!-- 7&#45;&#45;8 -->
<g id="edge7" class="edge">
<title>7&#45;&#45;8</title>
<path fill="none" stroke="black" d="M18,-174.27C18,-169.2 18,-144.93 18,-138.94"/>
</g>
<!-- 9 -->
<g id="node9" class="node">
<title>9</title>
<ellipse fill="black" stroke="black" cx="18" cy="-97" rx="1.8" ry="1.8"/>
</g>
<!-- 8&#45;&#45;9 -->
<g id="edge8" class="edge">
<title>8&#45;&#45;9</title>
<path fill="none" stroke="black" d="M18,-134.67C18,-129.6 18,-105.33 18,-99.34"/>
</g>
<!-- 10 -->
<g id="node10" class="node">
<title>10</title>
<ellipse fill="black" stroke="black" cx="18" cy="-57.4" rx="1.8" ry="1.8"/>
</g>
<!-- 9&#45;&#45;10 -->
<g id="edge9" class="edge">
<title>9&#45;&#45;10</title>
<path fill="none" stroke="black" d="M18,-95.07C18,-90 18,-65.73 18,-59.74"/>
</g>
<!-- 11 -->
<g id="node11" class="node">
<title>11</title>
<ellipse fill="black" stroke="black" cx="18" cy="-17.8" rx="1.8" ry="1.8"/>
</g>
<!-- 10&#45;&#45;11 -->
<g id="edge10" class="edge">
<title>10&#45;&#45;11</title>
<path fill="none" stroke="black" d="M18,-55.47C18,-50.4 18,-26.13 18,-20.14"/>
</g>
<!-- 12 -->
<g id="node12" class="node">
<title>12</title>
<ellipse fill="black" stroke="black" cx="57" cy="-413.8" rx="1.8" ry="1.8"/>
</g>
<!-- 13 -->
<g id="node13" class="node">
<title>13</title>
<ellipse fill="black" stroke="black" cx="57" cy="-374.2" rx="1.8" ry="1.8"/>
</g>
<!-- 12&#45;&#45;13 -->
<g id="edge11" class="edge">
<title>12&#45;&#45;13</title>
<path fill="none" stroke="black" d="M57,-411.87C57,-406.8 57,-382.53 57,-376.54"/>
</g>
<!-- 14 -->
<g id="node14" class="node">
<title>14</title>
<ellipse fill="black" stroke="black" cx="57" cy="-334.6" rx="1.8" ry="1.8"/>
</g>
<!-- 13&#45;&#45;14 -->
<g id="edge12" class="edge">
<title>13&#45;&#45;14</title>
<path fill="none" stroke="black" d="M57,-372.27C57,-367.2 57,-342.93 57,-336.94"/>
</g>
<!-- 15 -->
<g id="node15" class="node">
<title>15</title>
<ellipse fill="black" stroke="black" cx="57" cy="-295" rx="1.8" ry="1.8"/>
</g>
<!-- 14&#45;&#45;15 -->
<g id="edge13" class="edge">
<title>14&#45;&#45;15</title>
<path fill="none" stroke="black" d="M57,-332.67C57,-327.6 57,-303.33 57,-297.34"/>
</g>
<!-- 16 -->
<g id="node16" class="node">
<title>16</title>
<ellipse fill="black" stroke="black" cx="57" cy="-255.4" rx="1.8" ry="1.8"/>
</g>
<!-- 15&#45;&#45;16 -->
<g id="edge14" class="edge">
<title>15&#45;&#45;16</title>
<path fill="none" stroke="black" d="M57,-293.07C57,-288 57,-263.73 57,-257.74"/>
</g>
<!-- 17 -->
<g id="node17" class="node">
<title>17</title>
<ellipse fill="black" stroke="black" cx="57" cy="-215.8" rx="1.8" ry="1.8"/>
</g>
<!-- 16&#45;&#45;17 -->
<g id="edge15" class="edge">
<title>16&#45;&#45;17</title>
<path fill="none" stroke="black" d="M57,-253.47C57,-248.4 57,-224.13 57,-218.14"/>
</g>
<!-- 18 -->
<g id="node18" class="node">
<title>18</title>
<ellipse fill="black" stroke="black" cx="57" cy="-176.2" rx="1.8" ry="1.8"/>
</g>
<!-- 17&#45;&#45;18 -->
<g id="edge16" class="edge">
<title>17&#45;&#45;18</title>
<path fill="none" stroke="black" d="M57,-213.87C57,-208.8 57,-184.53 57,-178.54"/>
</g>
<!-- 19 -->
<g id="node19" class="node">
<title>19</title>
<ellipse fill="black" stroke="black" cx="57" cy="-136.6" rx="1.8" ry="1.8"/>
</g>
<!-- 18&#45;&#45;19 -->
<g id="edge17" class="edge">
<title>18&#45;&#45;19</title>
<path fill="none" stroke="black" d="M57,-174.27C57,-169.2 57,-144.93 57,-138.94"/>
</g>
<!-- 20 -->
<g id="node20" class="node">
<title>20</title>
<ellipse fill="black" stroke="black" cx="46" cy="-97" rx="1.8" ry="1.8"/>
</g>
<!-- 19&#45;&#45;20 -->
<g id="edge18" class="edge">
<title>19&#45;&#45;20</title>
<path fill="none" stroke="black" d="M56.73,-134.67C55.25,-129.6 48.14,-105.33 46.39,-99.34"/>
</g>
<!-- 21 -->
<g id="node21" class="node">
<title>21</title>
<ellipse fill="black" stroke="black" cx="68" cy="-97" rx="1.8" ry="1.8"/>
</g>
<!-- 19&#45;&#45;21 -->
<g id="edge19" class="edge">
<title>19&#45;&#45;21</title>
<path fill="none" stroke="black" d="M57.27,-134.67C58.75,-129.6 65.86,-105.33 67.61,-99.34"/>
</g>
<!-- 22 -->
<g id="node22" class="node">
<title>22</title>
<ellipse fill="black" stroke="black" cx="107" cy="-413.8" rx="1.8" ry="1.8"/>
</g>
<!-- 23 -->
<g id="node23" class="node">
<title>23</title>
<ellipse fill="black" stroke="black" cx="107" cy="-374.2" rx="1.8" ry="1.8"/>
</g>
<!-- 22&#45;&#45;23 -->
<g id="edge20" class="edge">
<title>22&#45;&#45;23</title>
<path fill="none" stroke="black" d="M107,-411.87C107,-406.8 107,-382.53 107,-376.54"/>
</g>
<!-- 24 -->
<g id="node24" class="node">
<title>24</title>
<ellipse fill="black" stroke="black" cx="107" cy="-334.6" rx="1.8" ry="1.8"/>
</g>
<!-- 23&#45;&#45;24 -->
<g id="edge21" class="edge">
<title>23&#45;&#45;24</title>
<path fill="none" stroke="black" d="M107,-372.27C107,-367.2 107,-342.93 107,-336.94"/>
</g>
<!-- 25 -->
<g id="node25" class="node">
<title>25</title>
<ellipse fill="black" stroke="black" cx="107" cy="-295" rx="1.8" ry="1.8"/>
</g>
<!-- 24&#45;&#45;25 -->
<g id="edge22" class="edge">
<title>24&#45;&#45;25</title>
<path fill="none" stroke="black" d="M107,-332.67C107,-327.6 107,-303.33 107,-297.34"/>
</g>
<!-- 26 -->
<g id="node26" class="node">
<title>26</title>
<ellipse fill="black" stroke="black" cx="107" cy="-255.4" rx="1.8" ry="1.8"/>
</g>
<!-- 25&#45;&#45;26 -->
<g id="edge23" class="edge">
<title>25&#45;&#45;26</title>
<path fill="none" stroke="black" d="M107,-293.07C107,-288 107,-263.73 107,-257.74"/>
</g>
<!-- 27 -->
<g id="node27" class="node">
<title>27</title>
<ellipse fill="black" stroke="black" cx="107" cy="-215.8" rx="1.8" ry="1.8"/>
</g>
<!-- 26&#45;&#45;27 -->
<g id="edge24" class="edge">
<title>26&#45;&#45;27</title>
<path fill="none" stroke="black" d="M107,-253.47C107,-248.4 107,-224.13 107,-218.14"/>
</g>
<!-- 28 -->
<g id="node28" class="node">
<title>28</title>
<ellipse fill="black" stroke="black" cx="96" cy="-176.2" rx="1.8" ry="1.8"/>
</g>
<!-- 27&#45;&#45;28 -->
<g id="edge25" class="edge">
<title>27&#45;&#45;28</title>
<path fill="none" stroke="black" d="M106.73,-213.87C105.25,-208.8 98.14,-184.53 96.39,-178.54"/>
</g>
<!-- 29 -->
<g id="node29" class="node">
<title>29</title>
<ellipse fill="black" stroke="black" cx="118" cy="-176.2" rx="1.8" ry="1.8"/>
</g>
<!-- 27&#45;&#45;29 -->
<g id="edge26" class="edge">
<title>27&#45;&#45;29</title>
<path fill="none" stroke="black" d="M107.27,-213.87C108.75,-208.8 115.86,-184.53 117.61,-178.54"/>
</g>
<!-- 30 -->
<g id="node30" class="node">
<title>30</title>
<ellipse fill="black" stroke="black" cx="118" cy="-136.6" rx="1.8" ry="1.8"/>
</g>
<!-- 29&#45;&#45;30 -->
<g id="edge27" class="edge">
<title>29&#45;&#45;30</title>
<path fill="none" stroke="black" d="M118,-174.27C118,-169.2 118,-144.93 118,-138.94"/>
</g>
<!-- 31 -->
<g id="node31" class="node">
<title>31</title>
<ellipse fill="black" stroke="black" cx="157" cy="-413.8" rx="1.8" ry="1.8"/>
</g>
<!-- 32 -->
<g id="node32" class="node">
<title>32</title>
<ellipse fill="black" stroke="black" cx="157" cy="-374.2" rx="1.8" ry="1.8"/>
</g>
<!-- 31&#45;&#45;32 -->
<g id="edge28" class="edge">
<title>31&#45;&#45;32</title>
<path fill="none" stroke="black" d="M157,-411.87C157,-406.8 157,-382.53 157,-376.54"/>
</g>
<!-- 33 -->
<g id="node33" class="node">
<title>33</title>
<ellipse fill="black" stroke="black" cx="157" cy="-334.6" rx="1.8" ry="1.8"/>
</g>
<!-- 32&#45;&#45;33 -->
<g id="edge29" class="edge">
<title>32&#45;&#45;33</title>
<path fill="none" stroke="black" d="M157,-372.27C157,-367.2 157,-342.93 157,-336.94"/>
</g>
<!-- 34 -->
<g id="node34" class="node">
<title>34</title>
<ellipse fill="black" stroke="black" cx="157" cy="-295" rx="1.8" ry="1.8"/>
</g>
<!-- 33&#45;&#45;34 -->
<g id="edge30" class="edge">
<title>33&#45;&#45;34</title>
<path fill="none" stroke="black" d="M157,-332.67C157,-327.6 157,-303.33 157,-297.34"/>
</g>
<!-- 35 -->
<g id="node35" class="node">
<title>35</title>
<ellipse fill="black" stroke="black" cx="146" cy="-255.4" rx="1.8" ry="1.8"/>
</g>
<!-- 34&#45;&#45;35 -->
<g id="edge31" class="edge">
<title>34&#45;&#45;35</title>
<path fill="none" stroke="black" d="M156.73,-293.07C155.25,-288 148.14,-263.73 146.39,-257.74"/>
</g>
<!-- 36 -->
<g id="node36" class="node">
<title>36</title>
<ellipse fill="black" stroke="black" cx="168" cy="-255.4" rx="1.8" ry="1.8"/>
</g>
<!-- 34&#45;&#45;36 -->
<g id="edge32" class="edge">
<title>34&#45;&#45;36</title>
<path fill="none" stroke="black" d="M157.27,-293.07C158.75,-288 165.86,-263.73 167.61,-257.74"/>
</g>
<!-- 37 -->
<g id="node37" class="node">
<title>37</title>
<ellipse fill="black" stroke="black" cx="168" cy="-215.8" rx="1.8" ry="1.8"/>
</g>
<!-- 36&#45;&#45;37 -->
<g id="edge33" class="edge">
<title>36&#45;&#45;37</title>
<path fill="none" stroke="black" d="M168,-253.47C168,-248.4 168,-224.13 168,-218.14"/>
</g>
<!-- 38 -->
<g id="node38" class="node">
<title>38</title>
<ellipse fill="black" stroke="black" cx="168" cy="-176.2" rx="1.8" ry="1.8"/>
</g>
<!-- 37&#45;&#45;38 -->
<g id="edge34" class="edge">
<title>37&#45;&#45;38</title>
<path fill="none" stroke="black" d="M168,-213.87C168,-208.8 168,-184.53 168,-178.54"/>
</g>
<!-- 39 -->
<g id="node39" class="node">
<title>39</title>
<ellipse fill="black" stroke="black" cx="218" cy="-413.8" rx="1.8" ry="1.8"/>
</g>
<!-- 40 -->
<g id="node40" class="node">
<title>40</title>
<ellipse fill="black" stroke="black" cx="218" cy="-374.2" rx="1.8" ry="1.8"/>
</g>
<!-- 39&#45;&#45;40 -->
<g id="edge35" class="edge">
<title>39&#45;&#45;40</title>
<path fill="none" stroke="black" d="M218,-411.87C218,-406.8 218,-382.53 218,-376.54"/>
</g>
<!-- 41 -->
<g id="node41" class="node">
<title>41</title>
<ellipse fill="black" stroke="black" cx="218" cy="-334.6" rx="1.8" ry="1.8"/>
</g>
<!-- 40&#45;&#45;41 -->
<g id="edge36" class="edge">
<title>40&#45;&#45;41</title>
<path fill="none" stroke="black" d="M218,-372.27C218,-367.2 218,-342.93 218,-336.94"/>
</g>
<!-- 42 -->
<g id="node42" class="node">
<title>42</title>
<ellipse fill="black" stroke="black" cx="218" cy="-295" rx="1.8" ry="1.8"/>
</g>
<!-- 41&#45;&#45;42 -->
<g id="edge37" class="edge">
<title>41&#45;&#45;42</title>
<path fill="none" stroke="black" d="M218,-332.67C218,-327.6 218,-303.33 218,-297.34"/>
</g>
<!-- 43 -->
<g id="node43" class="node">
<title>43</title>
<ellipse fill="black" stroke="black" cx="196" cy="-255.4" rx="1.8" ry="1.8"/>
</g>
<!-- 42&#45;&#45;43 -->
<g id="edge38" class="edge">
<title>42&#45;&#45;43</title>
<path fill="none" stroke="black" d="M217.46,-293.07C214.39,-287.82 199.26,-261.97 196.45,-257.17"/>
</g>
<!-- 44 -->
<g id="node44" class="node">
<title>44</title>
<ellipse fill="black" stroke="black" cx="218" cy="-255.4" rx="1.8" ry="1.8"/>
</g>
<!-- 42&#45;&#45;44 -->
<g id="edge39" class="edge">
<title>42&#45;&#45;44</title>
<path fill="none" stroke="black" d="M218,-293.07C218,-288 218,-263.73 218,-257.74"/>
</g>
<!-- 45 -->
<g id="node45" class="node">
<title>45</title>
<ellipse fill="black" stroke="black" cx="240" cy="-255.4" rx="1.8" ry="1.8"/>
</g>
<!-- 42&#45;&#45;45 -->
<g id="edge40" class="edge">
<title>42&#45;&#45;45</title>
<path fill="none" stroke="black" d="M218.54,-293.07C221.61,-287.82 236.74,-261.97 239.55,-257.17"/>
</g>
<!-- 46 -->
<g id="node46" class="node">
<title>46</title>
<ellipse fill="black" stroke="black" cx="279" cy="-413.8" rx="1.8" ry="1.8"/>
</g>
<!-- 47 -->
<g id="node47" class="node">
<title>47</title>
<ellipse fill="black" stroke="black" cx="279" cy="-374.2" rx="1.8" ry="1.8"/>
</g>
<!-- 46&#45;&#45;47 -->
<g id="edge41" class="edge">
<title>46&#45;&#45;47</title>
<path fill="none" stroke="black" d="M279,-411.87C279,-406.8 279,-382.53 279,-376.54"/>
</g>
<!-- 48 -->
<g id="node48" class="node">
<title>48</title>
<ellipse fill="black" stroke="black" cx="279" cy="-334.6" rx="1.8" ry="1.8"/>
</g>
<!-- 47&#45;&#45;48 -->
<g id="edge42" class="edge">
<title>47&#45;&#45;48</title>
<path fill="none" stroke="black" d="M279,-372.27C279,-367.2 279,-342.93 279,-336.94"/>
</g>
<!-- 49 -->
<g id="node49" class="node">
<title>49</title>
<ellipse fill="black" stroke="black" cx="268" cy="-295" rx="1.8" ry="1.8"/>
</g>
<!-- 48&#45;&#45;49 -->
<g id="edge43" class="edge">
<title>48&#45;&#45;49</title>
<path fill="none" stroke="black" d="M278.73,-332.67C277.25,-327.6 270.14,-303.33 268.39,-297.34"/>
</g>
<!-- 51 -->
<g id="node51" class="node">
<title>51</title>
<ellipse fill="black" stroke="black" cx="290" cy="-295" rx="1.8" ry="1.8"/>
</g>
<!-- 48&#45;&#45;51 -->
<g id="edge45" class="edge">
<title>48&#45;&#45;51</title>
<path fill="none" stroke="black" d="M279.27,-332.67C280.75,-327.6 287.86,-303.33 289.61,-297.34"/>
</g>
<!-- 50 -->
<g id="node50" class="node">
<title>50</title>
<ellipse fill="black" stroke="black" cx="268" cy="-255.4" rx="1.8" ry="1.8"/>
</g>
<!-- 49&#45;&#45;50 -->
<g id="edge44" class="edge">
<title>49&#45;&#45;50</title>
<path fill="none" stroke="black" d="M268,-293.07C268,-288 268,-263.73 268,-257.74"/>
</g>
<!-- 52 -->
<g id="node52" class="node">
<title>52</title>
<ellipse fill="black" stroke="black" cx="290" cy="-255.4" rx="1.8" ry="1.8"/>
</g>
<!-- 51&#45;&#45;52 -->
<g id="edge46" class="edge">
<title>51&#45;&#45;52</title>
<path fill="none" stroke="black" d="M290,-293.07C290,-288 290,-263.73 290,-257.74"/>
</g>
<!-- 53 -->
<g id="node53" class="node">
<title>53</title>
<ellipse fill="black" stroke="black" cx="329" cy="-413.8" rx="1.8" ry="1.8"/>
</g>
<!-- 54 -->
<g id="node54" class="node">
<title>54</title>
<ellipse fill="black" stroke="black" cx="329" cy="-374.2" rx="1.8" ry="1.8"/>
</g>
<!-- 53&#45;&#45;54 -->
<g id="edge47" class="edge">
<title>53&#45;&#45;54</title>
<path fill="none" stroke="black" d="M329,-411.87C329,-406.8 329,-382.53 329,-376.54"/>
</g>
<!-- 55 -->
<g id="node55" class="node">
<title>55</title>
<ellipse fill="black" stroke="black" cx="318" cy="-334.6" rx="1.8" ry="1.8"/>
</g>
<!-- 54&#45;&#45;55 -->
<g id="edge48" class="edge">
<title>54&#45;&#45;55</title>
<path fill="none" stroke="black" d="M328.73,-372.27C327.25,-367.2 320.14,-342.93 318.39,-336.94"/>
</g>
<!-- 56 -->
<g id="node56" class="node">
<title>56</title>
<ellipse fill="black" stroke="black" cx="340" cy="-334.6" rx="1.8" ry="1.8"/>
</g>
<!-- 54&#45;&#45;56 -->
<g id="edge49" class="edge">
<title>54&#45;&#45;56</title>
<path fill="none" stroke="black" d="M329.27,-372.27C330.75,-367.2 337.86,-342.93 339.61,-336.94"/>
</g>
<!-- 57 -->
<g id="node57" class="node">
<title>57</title>
<ellipse fill="black" stroke="black" cx="340" cy="-295" rx="1.8" ry="1.8"/>
</g>
<!-- 56&#45;&#45;57 -->
<g id="edge50" class="edge">
<title>56&#45;&#45;57</title>
<path fill="none" stroke="black" d="M340,-332.67C340,-327.6 340,-303.33 340,-297.34"/>
</g>
<!-- 58 -->
<g id="node58" class="node">
<title>58</title>
<ellipse fill="black" stroke="black" cx="340" cy="-255.4" rx="1.8" ry="1.8"/>
</g>
<!-- 57&#45;&#45;58 -->
<g id="edge51" class="edge">
<title>57&#45;&#45;58</title>
<path fill="none" stroke="black" d="M340,-293.07C340,-288 340,-263.73 340,-257.74"/>
</g>
<!-- 59 -->
<g id="node59" class="node">
<title>59</title>
<ellipse fill="black" stroke="black" cx="340" cy="-215.8" rx="1.8" ry="1.8"/>
</g>
<!-- 58&#45;&#45;59 -->
<g id="edge52" class="edge">
<title>58&#45;&#45;59</title>
<path fill="none" stroke="black" d="M340,-253.47C340,-248.4 340,-224.13 340,-218.14"/>
</g>
<!-- 60 -->
<g id="node60" class="node">
<title>60</title>
<ellipse fill="black" stroke="black" cx="379" cy="-413.8" rx="1.8" ry="1.8"/>
</g>
<!-- 61 -->
<g id="node61" class="node">
<title>61</title>
<ellipse fill="black" stroke="black" cx="379" cy="-374.2" rx="1.8" ry="1.8"/>
</g>
<!-- 60&#45;&#45;61 -->
<g id="edge53" class="edge">
<title>60&#45;&#45;61</title>
<path fill="none" stroke="black" d="M379,-411.87C379,-406.8 379,-382.53 379,-376.54"/>
</g>
<!-- 62 -->
<g id="node62" class="node">
<title>62</title>
<ellipse fill="black" stroke="black" cx="368" cy="-334.6" rx="1.8" ry="1.8"/>
</g>
<!-- 61&#45;&#45;62 -->
<g id="edge54" class="edge">
<title>61&#45;&#45;62</title>
<path fill="none" stroke="black" d="M378.73,-372.27C377.25,-367.2 370.14,-342.93 368.39,-336.94"/>
</g>
<!-- 63 -->
<g id="node63" class="node">
<title>63</title>
<ellipse fill="black" stroke="black" cx="390" cy="-334.6" rx="1.8" ry="1.8"/>
</g>
<!-- 61&#45;&#45;63 -->
<g id="edge55" class="edge">
<title>61&#45;&#45;63</title>
<path fill="none" stroke="black" d="M379.27,-372.27C380.75,-367.2 387.86,-342.93 389.61,-336.94"/>
</g>
<!-- 64 -->
<g id="node64" class="node">
<title>64</title>
<ellipse fill="black" stroke="black" cx="368" cy="-295" rx="1.8" ry="1.8"/>
</g>
<!-- 63&#45;&#45;64 -->
<g id="edge56" class="edge">
<title>63&#45;&#45;64</title>
<path fill="none" stroke="black" d="M389.46,-332.67C386.39,-327.42 371.26,-301.57 368.45,-296.77"/>
</g>
<!-- 65 -->
<g id="node65" class="node">
<title>65</title>
<ellipse fill="black" stroke="black" cx="390" cy="-295" rx="1.8" ry="1.8"/>
</g>
<!-- 63&#45;&#45;65 -->
<g id="edge57" class="edge">
<title>63&#45;&#45;65</title>
<path fill="none" stroke="black" d="M390,-332.67C390,-327.6 390,-303.33 390,-297.34"/>
</g>
<!-- 66 -->
<g id="node66" class="node">
<title>66</title>
<ellipse fill="black" stroke="black" cx="440" cy="-413.8" rx="1.8" ry="1.8"/>
</g>
<!-- 67 -->
<g id="node67" class="node">
<title>67</title>
<ellipse fill="black" stroke="black" cx="440" cy="-374.2" rx="1.8" ry="1.8"/>
</g>
<!-- 66&#45;&#45;67 -->
<g id="edge58" class="edge">
<title>66&#45;&#45;67</title>
<path fill="none" stroke="black" d="M440,-411.87C440,-406.8 440,-382.53 440,-376.54"/>
</g>
<!-- 68 -->
<g id="node68" class="node">
<title>68</title>
<ellipse fill="black" stroke="black" cx="440" cy="-334.6" rx="1.8" ry="1.8"/>
</g>
<!-- 67&#45;&#45;68 -->
<g id="edge59" class="edge">
<title>67&#45;&#45;68</title>
<path fill="none" stroke="black" d="M440,-372.27C440,-367.2 440,-342.93 440,-336.94"/>
</g>
<!-- 69 -->
<g id="node69" class="node">
<title>69</title>
<ellipse fill="black" stroke="black" cx="418" cy="-413.8" rx="1.8" ry="1.8"/>
</g>
<!-- 70 -->
<g id="node70" class="node">
<title>70</title>
<ellipse fill="black" stroke="black" cx="418" cy="-374.2" rx="1.8" ry="1.8"/>
</g>
<!-- 69&#45;&#45;70 -->
<g id="edge60" class="edge">
<title>69&#45;&#45;70</title>
<path fill="none" stroke="black" d="M418,-411.87C418,-406.8 418,-382.53 418,-376.54"/>
</g>
<!-- 71 -->
<g id="node71" class="node">
<title>71</title>
<ellipse fill="black" stroke="black" cx="490" cy="-413.8" rx="1.8" ry="1.8"/>
</g>
<!-- 72 -->
<g id="node72" class="node">
<title>72</title>
<ellipse fill="black" stroke="black" cx="490" cy="-374.2" rx="1.8" ry="1.8"/>
</g>
<!-- 71&#45;&#45;72 -->
<g id="edge61" class="edge">
<title>71&#45;&#45;72</title>
<path fill="none" stroke="black" d="M490,-411.87C490,-406.8 490,-382.53 490,-376.54"/>
</g>
<!-- 73 -->
<g id="node73" class="node">
<title>73</title>
<ellipse fill="black" stroke="black" cx="490" cy="-334.6" rx="1.8" ry="1.8"/>
</g>
<!-- 72&#45;&#45;73 -->
<g id="edge62" class="edge">
<title>72&#45;&#45;73</title>
<path fill="none" stroke="black" d="M490,-372.27C490,-367.2 490,-342.93 490,-336.94"/>
</g>
<!-- 74 -->
<g id="node74" class="node">
<title>74</title>
<ellipse fill="black" stroke="black" cx="490" cy="-295" rx="1.8" ry="1.8"/>
</g>
<!-- 73&#45;&#45;74 -->
<g id="edge63" class="edge">
<title>73&#45;&#45;74</title>
<path fill="none" stroke="black" d="M490,-332.67C490,-327.6 490,-303.33 490,-297.34"/>
</g>
<!-- 75 -->
<g id="node75" class="node">
<title>75</title>
<ellipse fill="black" stroke="black" cx="490" cy="-255.4" rx="1.8" ry="1.8"/>
</g>
<!-- 74&#45;&#45;75 -->
<g id="edge64" class="edge">
<title>74&#45;&#45;75</title>
<path fill="none" stroke="black" d="M490,-293.07C490,-288 490,-263.73 490,-257.74"/>
</g>
<!-- 76 -->
<g id="node76" class="node">
<title>76</title>
<ellipse fill="black" stroke="black" cx="468" cy="-413.8" rx="1.8" ry="1.8"/>
</g>
<!-- 77 -->
<g id="node77" class="node">
<title>77</title>
<ellipse fill="black" stroke="black" cx="540" cy="-413.8" rx="1.8" ry="1.8"/>
</g>
<!-- 78 -->
<g id="node78" class="node">
<title>78</title>
<ellipse fill="black" stroke="black" cx="540" cy="-374.2" rx="1.8" ry="1.8"/>
</g>
<!-- 77&#45;&#45;78 -->
<g id="edge65" class="edge">
<title>77&#45;&#45;78</title>
<path fill="none" stroke="black" d="M540,-411.87C540,-406.8 540,-382.53 540,-376.54"/>
</g>
<!-- 79 -->
<g id="node79" class="node">
<title>79</title>
<ellipse fill="black" stroke="black" cx="518" cy="-334.6" rx="1.8" ry="1.8"/>
</g>
<!-- 78&#45;&#45;79 -->
<g id="edge66" class="edge">
<title>78&#45;&#45;79</title>
<path fill="none" stroke="black" d="M539.46,-372.27C536.39,-367.02 521.26,-341.17 518.45,-336.37"/>
</g>
<!-- 80 -->
<g id="node80" class="node">
<title>80</title>
<ellipse fill="black" stroke="black" cx="540" cy="-334.6" rx="1.8" ry="1.8"/>
</g>
<!-- 78&#45;&#45;80 -->
<g id="edge67" class="edge">
<title>78&#45;&#45;80</title>
<path fill="none" stroke="black" d="M540,-372.27C540,-367.2 540,-342.93 540,-336.94"/>
</g>
<!-- 81 -->
<g id="node81" class="node">
<title>81</title>
<ellipse fill="black" stroke="black" cx="518" cy="-413.8" rx="1.8" ry="1.8"/>
</g>
<!-- 82 -->
<g id="node82" class="node">
<title>82</title>
<ellipse fill="black" stroke="black" cx="612" cy="-413.8" rx="1.8" ry="1.8"/>
</g>
<!-- 83 -->
<g id="node83" class="node">
<title>83</title>
<ellipse fill="black" stroke="black" cx="590" cy="-413.8" rx="1.8" ry="1.8"/>
</g>
<!-- 84 -->
<g id="node84" class="node">
<title>84</title>
<ellipse fill="black" stroke="black" cx="568" cy="-413.8" rx="1.8" ry="1.8"/>
</g>
<!-- 85 -->
<g id="node85" class="node">
<title>85</title>
<ellipse fill="black" stroke="black" cx="568" cy="-374.2" rx="1.8" ry="1.8"/>
</g>
<!-- 84&#45;&#45;85 -->
<g id="edge68" class="edge">
<title>84&#45;&#45;85</title>
<path fill="none" stroke="black" d="M568,-411.87C568,-406.8 568,-382.53 568,-376.54"/>
</g>
</g>
</svg>
